# xmcd CD database file
#
# Track frame offsets:
#	150
#	20090
#	37361
#	60960
#	92009
#	116472
#	141911
#	172272
#	209062
#	250727
#	261028
#
# Disc length: 3773 seconds
#
# Revision: 0
# Processed by: cddbd v1.5.2PL0 Copyright (c) Steve Scherf et al.
# Submitted via: CDex 1.51
#
DISCID=a40ebb0b
DTITLE=Jimmy Thackery - Solid Ice
DYEAR=2007
DGENRE=Blues
TTITLE0=Hit The Big Time
TTITLE1=How Long
TTITLE2=Fifteen Minutes
TTITLE3=Hobarts Blues
TTITLE4=Dazes in May
TTITLE5=Blue Tears
TTITLE6=XXX Wife
TTITLE7=One Or The Other
TTITLE8=Solid Ice
TTITLE9=Blue Tears Reprise
TTITLE10=Who Knows
EXTD=YEAR: 2007
EXTT0=
EXTT1=
EXTT2=
EXTT3=
EXTT4=
EXTT5=
EXTT6=
EXTT7=
EXTT8=
EXTT9=
EXTT10=
PLAYORDER=
